<?xml version="1.0" encoding="UTF-8" standalone="no"?>
<svg
   viewBox="0 0 19 13.818"
   width="19"
   height="13.818"
   version="1.1"
   id="svg4"
   sodipodi:docname="discord.svg"
   inkscape:version="1.2.1 (9c6d41e410, 2022-07-14)"
   xmlns:inkscape="http://www.inkscape.org/namespaces/inkscape"
   xmlns:sodipodi="http://sodipodi.sourceforge.net/DTD/sodipodi-0.dtd"
   xmlns="http://www.w3.org/2000/svg"
   xmlns:svg="http://www.w3.org/2000/svg">
  <defs
     id="defs8" />
  <sodipodi:namedview
     id="namedview6"
     pagecolor="#505050"
     bordercolor="#ffffff"
     borderopacity="1"
     inkscape:showpageshadow="0"
     inkscape:pageopacity="0"
     inkscape:pagecheckerboard="1"
     inkscape:deskcolor="#505050"
     showgrid="false"
     inkscape:zoom="36.857941"
     inkscape:cx="9.0889505"
     inkscape:cy="14.718674"
     inkscape:window-width="3840"
     inkscape:window-height="2054"
     inkscape:window-x="3445"
     inkscape:window-y="-11"
     inkscape:window-maximized="1"
     inkscape:current-layer="svg4" />
  <path
     fill="#8c9eff"
     d="m 16.409091,1.7272727 c 0,0 -1.979887,-1.5493636 -4.318182,-1.7272727 L 11.880182,0.42145454 C 13.994364,0.93877274 14.964227,1.6802044 15.977273,2.590909 14.230568,1.6992044 12.505886,0.86363634 9.5,0.86363634 6.4941136,0.86363634 4.7694318,1.6992044 3.0227273,2.590909 4.0357727,1.6802044 5.1895909,0.85715904 7.1198182,0.42145454 L 6.9090909,0 C 4.4559318,0.23188637 2.5909091,1.7272727 2.5909091,1.7272727 c 0,0 -2.2113409,3.20625 -2.5909091,9.5000003 2.2290454,2.570614 5.6136364,2.590909 5.6136364,2.590909 l 0.70775,-0.943523 C 5.1200682,12.457091 3.7632954,11.711341 2.5909091,10.363637 3.9891364,11.421591 6.0994318,12.522727 9.5,12.522727 c 3.400568,0 5.510864,-1.101136 6.909091,-2.15909 -1.172387,1.347704 -2.529159,2.093454 -3.730477,2.511022 l 0.70775,0.943523 c 0,0 3.38459,-0.02029 5.613636,-2.590909 C 18.620432,4.9335227 16.409091,1.7272727 16.409091,1.7272727 Z M 6.6931818,9.5000002 c -0.8347045,0 -1.5113636,-0.7733866 -1.5113636,-1.727273 0,-0.9538864 0.6766591,-1.7272728 1.5113636,-1.7272728 0.8347046,0 1.5113636,0.7733864 1.5113636,1.7272728 0,0.9538864 -0.676659,1.727273 -1.5113636,1.727273 z m 5.6136362,0 c -0.834704,0 -1.511364,-0.7733866 -1.511364,-1.727273 0,-0.9538864 0.67666,-1.7272728 1.511364,-1.7272728 0.834705,0 1.511364,0.7733864 1.511364,1.7272728 0,0.9538864 -0.676659,1.727273 -1.511364,1.727273 z"
     id="path2"
     style="stroke-width:0.431818" />
</svg>
